<svg width="490" height="485" viewBox="0 0 490 485" fill="none" xmlns="http://www.w3.org/2000/svg">
<path d="M489.5 0.5V484.5H0.5V0.5H489.5Z" stroke="black"/>
<path fill-rule="evenodd" clip-rule="evenodd" d="M100.955 418.691C119.683 418.691 134.918 403.611 134.918 385.075V228.268H201.911V385.075C201.911 440.262 156.712 485 100.955 485C45.1996 485 0 440.262 0 385.075C0 329.888 45.1996 285.15 100.955 285.15H106.185V351.458H100.955C82.2281 351.458 66.9922 366.539 66.9922 385.075C66.9922 403.611 82.2281 418.691 100.955 418.691Z" fill="#78C3BE"/>
<path d="M355.082 99.9252C355.082 81.3891 370.317 66.3086 389.045 66.3086C407.772 66.3086 423.008 81.3891 423.008 99.9252C423.008 118.461 407.772 133.542 389.045 133.542H383.815V199.85H389.045C444.8 199.85 490 155.112 490 99.9252C490 44.7384 444.8 0 389.045 0C333.288 0 288.089 44.7384 288.089 99.9252V256.732H355.082V99.9252Z" fill="#78C3BE"/>
<path d="M100.955 0C45.1996 0 0 44.7384 0 99.9252C0 155.112 45.1996 199.85 100.955 199.85H259.378V133.542H100.955C82.2281 133.542 66.9922 118.461 66.9922 99.9252C66.9922 81.3891 82.2281 66.3086 100.955 66.3086C119.683 66.3086 134.918 81.3891 134.918 99.9252V105.124H201.911V99.9252C201.911 44.7384 156.712 0 100.955 0Z" fill="#FDB801"/>
<path d="M389.045 285.15H230.622V351.458H389.045C407.772 351.458 423.008 366.539 423.008 385.075C423.008 403.611 407.772 418.691 389.045 418.691C370.317 418.691 355.082 403.611 355.082 385.075V379.534H288.089V385.075C288.089 440.262 333.289 485 389.045 485C444.8 485 490 440.262 490 385.075C490 329.888 444.8 285.15 389.045 285.15Z" fill="#FDB801"/>
<path d="M198.16 232.019V385.075C198.16 438.155 154.677 481.25 100.955 481.25C47.2343 481.25 3.7502 438.154 3.75 385.075C3.75 331.996 47.2342 288.9 100.955 288.899H102.435V347.708H100.955C80.1933 347.708 63.2422 364.432 63.2422 385.075C63.2424 405.718 80.1934 422.441 100.955 422.441C121.717 422.441 138.668 405.718 138.668 385.075V232.019H198.16ZM389.045 288.899C442.766 288.9 486.25 331.996 486.25 385.075C486.25 438.154 442.766 481.25 389.045 481.25C335.324 481.25 291.84 438.155 291.84 385.075V383.284H351.332V385.075C351.332 405.718 368.283 422.441 389.045 422.441C409.807 422.441 426.758 405.718 426.758 385.075C426.758 364.432 409.807 347.708 389.045 347.708H234.371V288.899H389.045ZM389.045 3.75C442.766 3.75013 486.25 46.8455 486.25 99.9248C486.25 153.004 442.766 196.1 389.045 196.101H387.565V137.292H389.045C409.807 137.292 426.758 120.568 426.758 99.9248C426.758 79.2817 409.807 62.5587 389.045 62.5586C368.283 62.5586 351.332 79.2816 351.332 99.9248V252.981H291.84V99.9248C291.84 46.8454 335.323 3.75 389.045 3.75ZM100.955 3.75C154.677 3.75 198.16 46.8454 198.16 99.9248V101.374H138.668V99.9248C138.668 79.2816 121.717 62.5586 100.955 62.5586C80.1934 62.5587 63.2424 79.2817 63.2422 99.9248C63.2422 120.568 80.1933 137.292 100.955 137.292H255.629V196.101H100.955C47.2342 196.1 3.75 153.004 3.75 99.9248C3.75019 46.8455 47.2343 3.75013 100.955 3.75Z" stroke="#544695" stroke-width="7.5"/>
</svg>
